<?xml version="1.0" standalone="no"?>
<!DOCTYPE svg PUBLIC "-//W3C//DTD SVG 20010904//EN"
 "http://www.w3.org/TR/2001/REC-SVG-20010904/DTD/svg10.dtd">
<svg version="1.0" xmlns="http://www.w3.org/2000/svg"
 width="1320.000000pt" height="1134.000000pt" viewBox="0 0 1320.000000 1134.000000"
 preserveAspectRatio="xMidYMid meet">

<g transform="translate(0.000000,1134.000000) scale(0.100000,-0.100000)"
fill="#000000" stroke="none">
<path d="M3513 10717 c12 -30 2968 -5112 2975 -5114 4 -1 104 165 223 370 119
205 788 1357 1488 2560 700 1203 1271 2190 1268 2193 -5 5 -356 -106 -2302
-724 l-750 -238 -1225 408 c-1498 499 -1683 559 -1677 545z"/>
<path d="M9730 9799 c-124 -159 -231 -298 -238 -308 -11 -16 71 -157 717
-1234 l729 -1215 -1105 -1899 c-608 -1044 -1108 -1904 -1110 -1911 -4 -10 86
-12 443 -10 l448 3 1042 1874 1041 1873 -866 1559 c-476 858 -868 1559 -871
1559 -3 -1 -106 -131 -230 -291z"/>
<path d="M3016 9894 c-41 -71 -635 -1085 -1319 -2254 l-1244 -2125 205 -308
c161 -241 208 -305 217 -295 9 9 1834 3078 2591 4354 l41 70 -199 330 c-110
181 -203 335 -207 343 -6 10 -30 -23 -85 -115z"/>
<path d="M8920 8325 c-113 -206 -204 -378 -203 -383 3 -10 942 -1617 957
-1637 10 -14 43 36 215 322 112 186 204 343 204 348 -1 10 -949 1704 -962
1717 -3 4 -99 -161 -211 -367z"/>
<path d="M3832 8598 c-11 -18 -583 -1023 -1272 -2233 -689 -1210 -1258 -2209
-1265 -2220 -12 -19 88 -197 1064 -1895 l1077 -1875 413 -3 c356 -2 412 0 408
12 -3 8 -486 851 -1073 1872 -587 1022 -1067 1863 -1067 1869 0 5 479 816
1063 1800 584 985 1083 1826 1109 1870 l48 80 -237 373 c-130 205 -239 375
-242 378 -3 3 -15 -10 -26 -28z"/>
<path d="M12112 6254 c-6 -11 -490 -869 -1076 -1909 l-1065 -1890 -2185 -5
-2185 -5 202 -340 203 -340 2189 -2 2190 -2 1076 1911 1076 1912 -200 335
c-110 185 -203 340 -207 345 -5 4 -13 0 -18 -10z"/>
<path d="M3159 4467 l-205 -344 1110 -1911 1111 -1911 2119 2 2120 2 238 375
239 375 -2186 5 -2186 5 -1070 1865 c-589 1026 -1074 1868 -1078 1873 -4 4
-100 -147 -212 -336z"/>
</g>
</svg>
